<?xml version="1.0" encoding="UTF-8" standalone="no"?>
<!DOCTYPE svg PUBLIC "-//W3C//DTD SVG 1.1//EN" "http://www.w3.org/Graphics/SVG/1.1/DTD/svg11.dtd">
<svg width="100%" height="100%" viewBox="0 0 1920 2160" version="1.1" xmlns="http://www.w3.org/2000/svg" xmlns:xlink="http://www.w3.org/1999/xlink" xml:space="preserve" xmlns:serif="http://www.serif.com/" style="fill-rule:evenodd;clip-rule:evenodd;stroke-linecap:round;stroke-linejoin:round;stroke-miterlimit:1.5;">
    <g transform="matrix(1,0,0,2,1.42109e-14,1.42109e-14)">
        <rect x="0" y="0" width="1920" height="1080"/>
    </g>
    <g transform="matrix(1,0,0,10.5192,1.13687e-13,1066)">
        <rect x="60" y="0" width="1800" height="104" style="fill:#181818;"/>
    </g>
    <g transform="matrix(-0.803055,-0.824531,0.611439,-0.595513,843.994,2626.2)">
        <path d="M274.5,1158.18l9.5,13.043l-19,-0l9.5,-13.043Z" style="fill:#00e2ff;"/>
    </g>
    <g transform="matrix(-0.803055,-0.824531,0.611439,-0.595513,851.796,2087.2)">
        <path d="M274.5,1158.18l9.5,13.043l-19,-0l9.5,-13.043Z" style="fill:#00e2ff;"/>
    </g>
    <g transform="matrix(-0.803055,-0.824531,0.611439,-0.595513,-230.204,2087.2)">
        <path d="M274.5,1158.18l9.5,13.043l-19,-0l9.5,-13.043Z" style="fill:#00e2ff;"/>
    </g>
    <g transform="matrix(1,0,0,1,0,539)">
        <g transform="matrix(1,0,0,1,1112.62,-3.77717)">
            <path d="M103,1193l552,-3" style="fill:none;stroke:#fff;stroke-width:1px;"/>
        </g>
        <g transform="matrix(1,0,0,1,582,-40.4243)">
            <text x="638.573px" y="1211.38px" style="font-family:'Bahnschrift', sans-serif;font-size:36px;fill:#fff;">TO<tspan x="678.44px 701.327px 721.261px " y="1211.38px 1211.38px 1211.38px ">OLS</tspan></text>
        </g>
    </g>
    <g>
        <g transform="matrix(1.42571,-0.00231365,-0.00231365,1.00001,4.64915,0.723305)">
            <path d="M103,1193l552,-3" style="fill:none;stroke:#fff;stroke-width:0.81px;"/>
        </g>
        <g transform="matrix(1,0,0,1,58,-42.043)">
            <text x="90.21px" y="1213px" style="font-family:'Bahnschrift', sans-serif;font-size:36px;fill:#fff;">W<tspan x="120.339px 143.226px " y="1213px 1213px ">OR</tspan>K</text>
        </g>
    </g>
    <g>
        <g transform="matrix(1,0,0,1,1112.62,-3.77717)">
            <path d="M103,1193l552,-3" style="fill:none;stroke:#fff;stroke-width:1px;"/>
        </g>
        <g transform="matrix(1,0,0,1,582,-40.4243)">
            <text x="632.043px" y="1211.38px" style="font-family:'Bahnschrift', sans-serif;font-size:36px;fill:#fff;">S<tspan x="653.857px 677.307px " y="1211.38px 1211.38px ">KI</tspan>LL<tspan x="727.791px " y="1211.38px ">S</tspan></text>
        </g>
    </g>
    <g transform="matrix(1,0,0,10.25,2.84217e-13,0)">
        <rect x="60" y="0" width="1800" height="104" style="fill:#181818;"/>
    </g>
    <g transform="matrix(1,0,0,1,-104.223,269)">
        <g transform="matrix(0.565581,0,0,0.723077,416.915,139.777)">
            <rect x="1005" y="521" width="279" height="65" style="fill:#00e2ff;"/>
        </g>
        <g transform="matrix(1,0,0,1,-97.8633,10.4269)">
            <text x="1105.5px" y="537.253px" style="font-family:'Bahnschrift', sans-serif;font-size:16px;">&gt;&gt; C<tspan x="1133.12px 1143.29px 1155.12px 1163.13px " y="537.253px 537.253px 537.253px 537.253px ">ONTI</tspan>NU<tspan x="1189.07px " y="537.253px ">E</tspan> &lt;&lt;</text>
        </g>
    </g>
    <g transform="matrix(4.96165,0,0,4.96165,-2617.75,-1710.92)">
        <text x="544.356px" y="353.087px" style="font-family:'AzonixRegular', 'Azonix';font-size:3.628px;fill:#fff;">D<tspan x="546.939px 548.826px 551.329px " y="353.087px 353.087px 353.087px ">ave</tspan></text>
        <text x="544.356px" y="356.715px" style="font-family:'AzonixRegular', 'Azonix';font-size:3.628px;fill:#fff;">Rich</text>
    </g>
    <g transform="matrix(1,0,0,1,58.6722,119)">
        <text x="358.782px" y="288.136px" style="font-family:'Bahnschrift', sans-serif;font-size:144px;fill:#fff;">Engineering</text>
        <text x="358.782px" y="452.136px" style="font-family:'Bahnschrift', sans-serif;font-size:164px;fill:#fff;">scal<tspan x="659.475px " y="452.136px ">a</tspan>ble</text>
        <text x="1010.05px" y="452.136px" style="font-family:'Bahnschrift', sans-serif;font-size:144px;fill:#fff;">softwar<tspan x="1503.86px " y="452.136px ">e</tspan></text>
        <text x="358.782px" y="596.136px" style="font-family:'Bahnschrift', sans-serif;font-size:144px;fill:#fff;">f<tspan x="402.305px " y="596.136px ">o</tspan>r the clo<tspan x="1014.31px " y="596.136px ">u</tspan>d</text>
        <text x="1172.02px" y="596.136px" style="font-family:'Bahnschrift', sans-serif;font-size:144px;fill:#00cfff;">.</text>
    </g>
    <g transform="matrix(1,0,0,1,-90,-0.972319)">
        <g transform="matrix(0.848253,-0.313317,0.199587,0.72855,283.159,562.886)">
            <path d="M1783.5,43.852c-8.9,1.298 -16.125,7.83 -16.125,15.574c0,7.745 7.225,14.276 16.125,15.574c-3.56,-3.634 -6.45,-9.361 -6.45,-15.574c-0,-6.212 2.89,-11.94 6.45,-15.574Z" style="fill:#00e2ff;"/>
        </g>
        <g transform="matrix(0.637931,0,0,0.740741,657.69,15.639)">
            <rect x="1764" y="18" width="58" height="54" style="fill:none;stroke:#00e2ff;stroke-width:1.45px;"/>
        </g>
    </g>
    <g>
        <g transform="matrix(1.66182,0,0,1.66182,-587.154,18.4629)">
            <text x="1126.56px" y="22.347px" style="font-family:'Bahnschrift', sans-serif;font-size:12.035px;fill:#00cfff;">EX<tspan x="1140.7px 1148.07px " y="22.347px 22.347px ">PE</tspan>RIENC<tspan x="1189.37px " y="22.347px ">E</tspan></text>
        </g>
        <g transform="matrix(1.60684,0,0,1,-814.498,0)">
            <rect x="1301" y="28" width="84" height="41" style="fill:none;stroke:#00e2ff;stroke-width:0.75px;"/>
        </g>
    </g>
    <g transform="matrix(1,0,0,1,12,0)">
        <g transform="matrix(1.66182,0,0,1.66182,-319.42,17.9352)">
            <text x="1136.92px" y="22.347px" style="font-family:'Bahnschrift', sans-serif;font-size:12.035px;fill:#00cfff;">HO<tspan x="1152.74px " y="22.347px ">B</tspan>BIES</text>
        </g>
        <g transform="matrix(1.13,0,0,1,-185.817,0)">
            <rect x="1544.69" y="28" width="92.305" height="41" style="fill:none;stroke:#00e2ff;stroke-width:0.94px;"/>
        </g>
    </g>
    <g transform="matrix(0.965595,0,0,1,79.2209,0)">
        <g transform="matrix(1.66182,0,0,1.66182,-470.947,18.4629)">
            <text x="1133.34px" y="22.347px" style="font-family:'Bahnschrift', sans-serif;font-size:12.035px;fill:#00cfff;">P<tspan x="1140.71px 1148.32px 1155.86px " y="22.347px 22.347px 22.347px ">ROJ</tspan>ECTS</text>
        </g>
        <g transform="matrix(1.1045,0,0,1,-161.017,0)">
            <rect x="1414.74" y="28" width="105.262" height="41" style="fill:none;stroke:#00e2ff;stroke-width:0.97px;"/>
        </g>
    </g>
</svg>
